NunitoSans-XmaxExtraLight.ufo
<glyph name="dollar" format="2">
  <advance width="600"/>
  <unicode hex="0024"/>
  <outline>
    <contour>
      <point x="290" y="-115" type="line"/>
      <point x="330" y="-115" type="line"/>
      <point x="330" y="10" type="line"/>
      <point x="317" y="-4" type="line"/>
      <point x="446" y="1"/>
      <point x="538" y="70"/>
      <point x="538" y="182" type="curve" smooth="yes"/>
      <point x="538" y="275"/>
      <point x="477" y="326"/>
      <point x="346" y="353" type="curve" smooth="yes"/>
      <point x="251" y="373" type="line" smooth="yes"/>
      <point x="155" y="393"/>
      <point x="113" y="435"/>
      <point x="113" y="511" type="curve" smooth="yes"/>
      <point x="113" y="605"/>
      <point x="188" y="668"/>
      <point x="301" y="668" type="curve" smooth="yes"/>
      <point x="383" y="668"/>
      <point x="446" y="643"/>
      <point x="502" y="582" type="curve"/>
      <point x="522" y="618" type="line"/>
      <point x="469" y="678"/>
      <point x="391" y="706"/>
      <point x="323" y="708" type="curve"/>
      <point x="330" y="696" type="line"/>
      <point x="330" y="820" type="line"/>
      <point x="290" y="820" type="line"/>
      <point x="290" y="696" type="line"/>
      <point x="295" y="709" type="line"/>
      <point x="162" y="707"/>
      <point x="72" y="625"/>
      <point x="72" y="511" type="curve" smooth="yes"/>
      <point x="72" y="413"/>
      <point x="129" y="356"/>
      <point x="249" y="331" type="curve" smooth="yes"/>
      <point x="344" y="311" type="line" smooth="yes"/>
      <point x="451" y="288"/>
      <point x="495" y="251"/>
      <point x="495" y="181" type="curve" smooth="yes"/>
      <point x="495" y="95"/>
      <point x="430" y="37"/>
      <point x="303" y="37" type="curve" smooth="yes"/>
      <point x="203" y="37"/>
      <point x="143" y="62"/>
      <point x="78" y="119" type="curve"/>
      <point x="56" y="83" type="line"/>
      <point x="121" y="22"/>
      <point x="208" y="-4"/>
      <point x="303" y="-4" type="curve"/>
      <point x="290" y="9" type="line"/>
    </contour>
  </outline>
</glyph>
<glyph name="asterisk" format="2">
  <advance width="448"/>
  <unicode hex="002A"/>
  <outline>
    <contour>
      <point x="146" y="392" type="line"/>
      <point x="227" y="538" type="line"/>
      <point x="221" y="538" type="line"/>
      <point x="301" y="393" type="line"/>
      <point x="334" y="412" type="line"/>
      <point x="247" y="556" type="line"/>
      <point x="241" y="549" type="line"/>
      <point x="412" y="545" type="line"/>
      <point x="412" y="584" type="line"/>
      <point x="241" y="580" type="line"/>
      <point x="247" y="574" type="line"/>
      <point x="334" y="718" type="line"/>
      <point x="301" y="737" type="line"/>
      <point x="221" y="591" type="line"/>
      <point x="227" y="591" type="line"/>
      <point x="146" y="737" type="line"/>
      <point x="113" y="718" type="line"/>
      <point x="201" y="574" type="line"/>
      <point x="206" y="580" type="line"/>
      <point x="36" y="584" type="line"/>
      <point x="36" y="545" type="line"/>
      <point x="206" y="549" type="line"/>
      <point x="201" y="556" type="line"/>
      <point x="113" y="412" type="line"/>
    </contour>
  </outline>
</glyph>
<glyph name="two" format="2">
  <advance width="600"/>
  <unicode hex="0032"/>
  <outline>
    <contour>
      <point x="98" y="0" type="line"/>
      <point x="531" y="0" type="line"/>
      <point x="531" y="39" type="line"/>
      <point x="141" y="39" type="line"/>
      <point x="141" y="24" type="line"/>
      <point x="375" y="275" type="line" smooth="yes"/>
      <point x="459" y="366"/>
      <point x="501" y="445"/>
      <point x="501" y="530" type="curve" smooth="yes"/>
      <point x="501" y="646"/>
      <point x="426" y="713"/>
      <point x="295" y="713" type="curve" smooth="yes"/>
      <point x="207" y="713"/>
      <point x="124" y="675"/>
      <point x="76" y="620" type="curve"/>
      <point x="96" y="584" type="line"/>
      <point x="152" y="643"/>
      <point x="216" y="672"/>
      <point x="295" y="672" type="curve" smooth="yes"/>
      <point x="401" y="672"/>
      <point x="457" y="622"/>
      <point x="457" y="529" type="curve" smooth="yes"/>
      <point x="457" y="456"/>
      <point x="425" y="389"/>
      <point x="351" y="308" type="curve" smooth="yes"/>
      <point x="98" y="32" type="line"/>
    </contour>
  </outline>
</glyph>
<glyph name="six" format="2">
  <advance width="600"/>
  <unicode hex="0036"/>
  <outline>
    <contour>
      <point x="323" y="-8" type="curve" smooth="yes"/>
      <point x="449" y="-8"/>
      <point x="539" y="85"/>
      <point x="539" y="214" type="curve" smooth="yes"/>
      <point x="539" y="343"/>
      <point x="451" y="434"/>
      <point x="323" y="434" type="curve" smooth="yes"/>
      <point x="208" y="434"/>
      <point x="121" y="355"/>
      <point x="111" y="230" type="curve"/>
      <point x="117" y="230" type="line"/>
      <point x="117" y="340" type="line" smooth="yes"/>
      <point x="117" y="560"/>
      <point x="199" y="672"/>
      <point x="342" y="672" type="curve" smooth="yes"/>
      <point x="405" y="672"/>
      <point x="467" y="644"/>
      <point x="516" y="587" type="curve"/>
      <point x="536" y="623" type="line"/>
      <point x="493" y="677"/>
      <point x="413" y="713"/>
      <point x="343" y="713" type="curve" smooth="yes"/>
      <point x="174" y="713"/>
      <point x="74" y="578"/>
      <point x="74" y="331" type="curve" smooth="yes"/>
      <point x="74" y="117"/>
      <point x="163" y="-8"/>
    </contour>
    <contour>
      <point x="319" y="33" type="curve" smooth="yes"/>
      <point x="215" y="33"/>
      <point x="143" y="107"/>
      <point x="143" y="213" type="curve" smooth="yes"/>
      <point x="143" y="319"/>
      <point x="215" y="393"/>
      <point x="319" y="393" type="curve" smooth="yes"/>
      <point x="423" y="393"/>
      <point x="495" y="319"/>
      <point x="495" y="213" type="curve" smooth="yes"/>
      <point x="495" y="107"/>
      <point x="423" y="33"/>
    </contour>
  </outline>
</glyph>
<glyph name="equal" format="2">
  <advance width="600"/>
  <unicode hex="003D"/>
  <outline>
    <contour>
      <point x="56" y="367" type="line"/>
      <point x="544" y="367" type="line"/>
      <point x="544" y="406" type="line"/>
      <point x="56" y="406" type="line"/>
    </contour>
    <contour>
      <point x="56" y="168" type="line"/>
      <point x="544" y="168" type="line"/>
      <point x="544" y="207" type="line"/>
      <point x="56" y="207" type="line"/>
    </contour>
  </outline>
</glyph>
<glyph name="F" format="2">
  <advance width="536"/>
  <unicode hex="0046"/>
  <anchor x="293" y="0" name="bottom"/>
  <anchor x="293" y="705" name="top"/>
  <outline>
    <contour>
      <point x="96" y="0" type="line"/>
      <point x="138" y="0" type="line"/>
      <point x="138" y="338" type="line"/>
      <point x="490" y="338" type="line"/>
      <point x="490" y="377" type="line"/>
      <point x="138" y="377" type="line"/>
      <point x="138" y="666" type="line"/>
      <point x="510" y="666" type="line"/>
      <point x="510" y="705" type="line"/>
      <point x="96" y="705" type="line"/>
    </contour>
  </outline>
</glyph>
<glyph name="O" format="2">
  <advance width="751"/>
  <unicode hex="004F"/>
  <anchor x="375" y="-8" name="Qtail"/>
  <anchor x="375" y="0" name="bottom"/>
  <anchor x="376" y="353" name="center"/>
  <anchor x="430" y="0" name="ogonek"/>
  <anchor x="375" y="705" name="top"/>
  <anchor x="26" y="705" name="topleft"/>
  <anchor x="448" y="705" name="topright"/>
  <outline>
    <contour>
      <point x="375" y="-8" type="curve" smooth="yes"/>
      <point x="566" y="-8"/>
      <point x="684" y="130"/>
      <point x="684" y="354" type="curve" smooth="yes"/>
      <point x="684" y="576"/>
      <point x="567" y="713"/>
      <point x="375" y="713" type="curve" smooth="yes"/>
      <point x="183" y="713"/>
      <point x="67" y="576"/>
      <point x="67" y="353" type="curve" smooth="yes"/>
      <point x="67" y="130"/>
      <point x="185" y="-8"/>
    </contour>
    <contour>
      <point x="375" y="33" type="curve" smooth="yes"/>
      <point x="208" y="33"/>
      <point x="112" y="151"/>
      <point x="112" y="353" type="curve" smooth="yes"/>
      <point x="112" y="555"/>
      <point x="208" y="672"/>
      <point x="375" y="672" type="curve" smooth="yes"/>
      <point x="544" y="672"/>
      <point x="639" y="556"/>
      <point x="639" y="353" type="curve" smooth="yes"/>
      <point x="639" y="150"/>
      <point x="543" y="33"/>
    </contour>
  </outline>
</glyph>
<glyph name="bracketleft" format="2">
  <advance width="281"/>
  <unicode hex="005B"/>
  <outline>
    <contour>
      <point x="112" y="-180" type="line"/>
      <point x="277" y="-180" type="line"/>
      <point x="277" y="-143" type="line"/>
      <point x="154" y="-143" type="line"/>
      <point x="154" y="668" type="line"/>
      <point x="277" y="668" type="line"/>
      <point x="277" y="705" type="line"/>
      <point x="112" y="705" type="line"/>
    </contour>
  </outline>
</glyph>
<glyph name="bracketright" format="2">
  <advance width="281"/>
  <unicode hex="005D"/>
  <outline>
    <contour>
      <point x="4" y="-180" type="line"/>
      <point x="169" y="-180" type="line"/>
      <point x="169" y="705" type="line"/>
      <point x="4" y="705" type="line"/>
      <point x="4" y="668" type="line"/>
      <point x="127" y="668" type="line"/>
      <point x="127" y="-143" type="line"/>
      <point x="4" y="-143" type="line"/>
    </contour>
  </outline>
</glyph>
<glyph name="a" format="2">
  <advance width="514"/>
  <unicode hex="0061"/>
  <anchor x="262" y="0" name="bottom"/>
  <anchor x="431" y="0" name="ogonek"/>
  <anchor x="265" y="484" name="top"/>
  <outline>
    <contour>
      <point x="236" y="-9" type="curve" smooth="yes"/>
      <point x="322" y="-9"/>
      <point x="384" y="45"/>
      <point x="401" y="125" type="curve"/>
      <point x="390" y="125" type="line"/>
      <point x="390" y="0" type="line"/>
      <point x="431" y="0" type="line"/>
      <point x="431" y="361" type="line" smooth="yes"/>
      <point x="431" y="495"/>
      <point x="371" y="542"/>
      <point x="268" y="542" type="curve" smooth="yes"/>
      <point x="204" y="542"/>
      <point x="135" y="521"/>
      <point x="83" y="482" type="curve"/>
      <point x="104" y="446" type="line"/>
      <point x="160" y="487"/>
      <point x="210" y="503"/>
      <point x="271" y="503" type="curve" smooth="yes"/>
      <point x="350" y="503"/>
      <point x="389" y="465"/>
      <point x="389" y="360" type="curve" smooth="yes"/>
      <point x="389" y="210" type="line" smooth="yes"/>
      <point x="389" y="99"/>
      <point x="324" y="30"/>
      <point x="239" y="30" type="curve" smooth="yes"/>
      <point x="161" y="30"/>
      <point x="110" y="78"/>
      <point x="110" y="153" type="curve" smooth="yes"/>
      <point x="110" y="238"/>
      <point x="160" y="264"/>
      <point x="367" y="264" type="curve" smooth="yes"/>
      <point x="400" y="264" type="line"/>
      <point x="400" y="302" type="line"/>
      <point x="366" y="302" type="line" smooth="yes"/>
      <point x="130" y="302"/>
      <point x="64" y="263"/>
      <point x="64" y="151" type="curve" smooth="yes"/>
      <point x="64" y="57"/>
      <point x="137" y="-9"/>
    </contour>
  </outline>
</glyph>
<glyph name="c" format="2">
  <advance width="455"/>
  <unicode hex="0063"/>
  <anchor x="273" y="0" name="bottom"/>
  <anchor x="273" y="484" name="top"/>
  <outline>
    <contour>
      <point x="274" y="-8" type="curve" smooth="yes"/>
      <point x="331" y="-8"/>
      <point x="393" y="16"/>
      <point x="434" y="68" type="curve"/>
      <point x="410" y="98" type="line"/>
      <point x="369" y="49"/>
      <point x="318" y="31"/>
      <point x="273" y="31" type="curve" smooth="yes"/>
      <point x="164" y="31"/>
      <point x="96" y="113"/>
      <point x="96" y="271" type="curve" smooth="yes"/>
      <point x="96" y="429"/>
      <point x="164" y="503"/>
      <point x="273" y="503" type="curve" smooth="yes"/>
      <point x="324" y="503"/>
      <point x="371" y="482"/>
      <point x="410" y="436" type="curve"/>
      <point x="434" y="466" type="line"/>
      <point x="396" y="514"/>
      <point x="337" y="542"/>
      <point x="273" y="542" type="curve" smooth="yes"/>
      <point x="144" y="542"/>
      <point x="53" y="455"/>
      <point x="53" y="272" type="curve" smooth="yes"/>
      <point x="53" y="91"/>
      <point x="139" y="-8"/>
    </contour>
  </outline>
</glyph>
<glyph name="f" format="2">
  <advance width="306"/>
  <unicode hex="0066"/>
  <anchor x="126" y="0" name="bottom"/>
  <anchor x="126" y="595" name="top"/>
  <outline>
    <contour>
      <point x="105" y="0" type="line"/>
      <point x="147" y="0" type="line"/>
      <point x="147" y="498" type="line"/>
      <point x="293" y="498" type="line"/>
      <point x="293" y="534" type="line"/>
      <point x="138" y="534" type="line"/>
      <point x="147" y="513" type="line"/>
      <point x="147" y="545" type="line" smooth="yes"/>
      <point x="147" y="620"/>
      <point x="181" y="664"/>
      <point x="269" y="668" type="curve" smooth="yes"/>
      <point x="314" y="670" type="line"/>
      <point x="311" y="707" type="line"/>
      <point x="276" y="706" type="line" smooth="yes"/>
      <point x="157" y="701"/>
      <point x="105" y="642"/>
      <point x="105" y="545" type="curve" smooth="yes"/>
      <point x="105" y="516" type="line"/>
      <point x="115" y="534" type="line"/>
      <point x="8" y="534" type="line"/>
      <point x="8" y="498" type="line"/>
      <point x="105" y="498" type="line"/>
    </contour>
  </outline>
</glyph>
<glyph name="k" format="2">
  <advance width="468"/>
  <unicode hex="006B"/>
  <anchor x="234" y="0" name="bottom"/>
  <anchor x="278" y="705" name="top"/>
  <outline>
    <contour>
      <point x="85" y="0" type="line"/>
      <point x="127" y="0" type="line"/>
      <point x="127" y="261" type="line"/>
      <point x="129" y="261" type="line"/>
      <point x="411" y="0" type="line"/>
      <point x="468" y="0" type="line"/>
      <point x="157" y="289" type="line"/>
      <point x="157" y="261" type="line"/>
      <point x="441" y="534" type="line"/>
      <point x="384" y="534" type="line"/>
      <point x="129" y="288" type="line"/>
      <point x="127" y="288" type="line"/>
      <point x="127" y="705" type="line"/>
      <point x="85" y="705" type="line"/>
    </contour>
  </outline>
</glyph>
<glyph name="l" format="2">
  <advance width="275"/>
  <unicode hex="006C"/>
  <anchor x="181" y="0" name="bottom"/>
  <anchor x="116" y="395" name="center"/>
  <anchor x="238" y="395" name="dot"/>
  <anchor x="106" y="705" name="top"/>
  <anchor x="177" y="705" name="topright"/>
  <outline>
    <contour>
      <point x="217" y="-8" type="curve" smooth="yes"/>
      <point x="231" y="-8"/>
      <point x="247" y="-6"/>
      <point x="265" y="-2" type="curve"/>
      <point x="268" y="37" type="line"/>
      <point x="253" y="33"/>
      <point x="238" y="31"/>
      <point x="221" y="31" type="curve" smooth="yes"/>
      <point x="159" y="31"/>
      <point x="127" y="72"/>
      <point x="127" y="153" type="curve" smooth="yes"/>
      <point x="127" y="705" type="line"/>
      <point x="85" y="705" type="line"/>
      <point x="85" y="146" type="line" smooth="yes"/>
      <point x="85" y="48"/>
      <point x="133" y="-8"/>
    </contour>
  </outline>
</glyph>
<glyph name="o" format="2">
  <advance width="538"/>
  <unicode hex="006F"/>
  <anchor x="269" y="0" name="bottom"/>
  <anchor x="269" y="267" name="center"/>
  <anchor x="328" y="0" name="ogonek"/>
  <anchor x="269" y="484" name="top"/>
  <anchor x="315" y="534" name="topright"/>
  <outline>
    <contour>
      <point x="269" y="-8" type="curve" smooth="yes"/>
      <point x="400" y="-8"/>
      <point x="485" y="89"/>
      <point x="485" y="267" type="curve" smooth="yes"/>
      <point x="485" y="446"/>
      <point x="400" y="542"/>
      <point x="269" y="542" type="curve" smooth="yes"/>
      <point x="139" y="542"/>
      <point x="53" y="446"/>
      <point x="53" y="267" type="curve" smooth="yes"/>
      <point x="53" y="89"/>
      <point x="139" y="-8"/>
    </contour>
    <contour>
      <point x="269" y="31" type="curve" smooth="yes"/>
      <point x="166" y="31"/>
      <point x="96" y="108"/>
      <point x="96" y="267" type="curve" smooth="yes"/>
      <point x="96" y="427"/>
      <point x="166" y="503"/>
      <point x="269" y="503" type="curve" smooth="yes"/>
      <point x="372" y="503"/>
      <point x="442" y="427"/>
      <point x="442" y="267" type="curve" smooth="yes"/>
      <point x="442" y="108"/>
      <point x="372" y="31"/>
    </contour>
  </outline>
</glyph>
<glyph name="p" format="2">
  <advance width="568"/>
  <unicode hex="0070"/>
  <anchor x="282" y="0" name="bottom"/>
  <anchor x="282" y="484" name="top"/>
  <outline>
    <contour>
      <point x="85" y="-180" type="line"/>
      <point x="127" y="-180" type="line"/>
      <point x="127" y="141" type="line"/>
      <point x="115" y="141" type="line"/>
      <point x="138" y="45"/>
      <point x="207" y="-8"/>
      <point x="300" y="-8" type="curve" smooth="yes"/>
      <point x="430" y="-8"/>
      <point x="515" y="89"/>
      <point x="515" y="267" type="curve" smooth="yes"/>
      <point x="515" y="446"/>
      <point x="430" y="542"/>
      <point x="300" y="542" type="curve" smooth="yes"/>
      <point x="207" y="542"/>
      <point x="138" y="490"/>
      <point x="115" y="394" type="curve"/>
      <point x="127" y="394" type="line"/>
      <point x="127" y="534" type="line"/>
      <point x="85" y="534" type="line"/>
    </contour>
    <contour>
      <point x="299" y="31" type="curve" smooth="yes"/>
      <point x="196" y="31"/>
      <point x="126" y="108"/>
      <point x="126" y="267" type="curve" smooth="yes"/>
      <point x="126" y="427"/>
      <point x="196" y="503"/>
      <point x="299" y="503" type="curve" smooth="yes"/>
      <point x="402" y="503"/>
      <point x="472" y="427"/>
      <point x="472" y="267" type="curve" smooth="yes"/>
      <point x="472" y="108"/>
      <point x="402" y="31"/>
    </contour>
  </outline>
</glyph>
<glyph name="bar" format="2">
  <advance width="244"/>
  <unicode hex="007C"/>
  <outline>
    <contour>
      <point x="101" y="-180" type="line"/>
      <point x="143" y="-180" type="line"/>
      <point x="143" y="705" type="line"/>
      <point x="101" y="705" type="line"/>
    </contour>
  </outline>
</glyph>
<glyph name="exclamdown" format="2">
  <advance width="211"/>
  <unicode hex="00A1"/>
  <outline>
    <contour>
      <point x="79" y="-180" type="line"/>
      <point x="132" y="-180" type="line"/>
      <point x="119" y="373" type="line"/>
      <point x="92" y="373" type="line"/>
    </contour>
    <contour>
      <point x="71" y="464" type="line"/>
      <point x="140" y="464" type="line"/>
      <point x="140" y="534" type="line"/>
      <point x="71" y="534" type="line"/>
    </contour>
  </outline>
</glyph>
<glyph name="degree" format="2">
  <advance width="364"/>
  <unicode hex="00B0"/>
  <outline>
    <contour>
      <point x="182" y="429" type="curve" smooth="yes"/>
      <point x="261" y="429"/>
      <point x="322" y="490"/>
      <point x="322" y="571" type="curve" smooth="yes"/>
      <point x="322" y="652"/>
      <point x="261" y="713"/>
      <point x="182" y="713" type="curve" smooth="yes"/>
      <point x="102" y="713"/>
      <point x="41" y="651"/>
      <point x="41" y="571" type="curve" smooth="yes"/>
      <point x="41" y="491"/>
      <point x="102" y="429"/>
    </contour>
    <contour>
      <point x="182" y="469" type="curve" smooth="yes"/>
      <point x="124" y="469"/>
      <point x="84" y="511"/>
      <point x="84" y="571" type="curve" smooth="yes"/>
      <point x="84" y="631"/>
      <point x="124" y="673"/>
      <point x="182" y="673" type="curve" smooth="yes"/>
      <point x="240" y="673"/>
      <point x="280" y="631"/>
      <point x="280" y="571" type="curve" smooth="yes"/>
      <point x="280" y="511"/>
      <point x="240" y="469"/>
    </contour>
  </outline>
</glyph>
<glyph name="periodcentered" format="2">
  <advance width="211"/>
  <unicode hex="00B7"/>
  <outline>
    <contour>
      <point x="71" y="255" type="line"/>
      <point x="140" y="255" type="line"/>
      <point x="140" y="325" type="line"/>
      <point x="71" y="325" type="line"/>
    </contour>
  </outline>
</glyph>
<glyph name="questiondown" format="2">
  <advance width="429"/>
  <unicode hex="00BF"/>
  <outline>
    <contour>
      <point x="214" y="-188" type="curve" smooth="yes"/>
      <point x="296" y="-188"/>
      <point x="380" y="-154"/>
      <point x="427" y="-93" type="curve"/>
      <point x="404" y="-60" type="line"/>
      <point x="351" y="-120"/>
      <point x="287" y="-147"/>
      <point x="212" y="-147" type="curve" smooth="yes"/>
      <point x="126" y="-147"/>
      <point x="76" y="-101"/>
      <point x="76" y="-31" type="curve" smooth="yes"/>
      <point x="76" y="20"/>
      <point x="94" y="65"/>
      <point x="154" y="136" type="curve" smooth="yes"/>
      <point x="225" y="219"/>
      <point x="248" y="281"/>
      <point x="248" y="354" type="curve" smooth="yes"/>
      <point x="248" y="372" type="line"/>
      <point x="218" y="372" type="line"/>
      <point x="216" y="351" type="line" smooth="yes"/>
      <point x="210" y="287"/>
      <point x="186" y="237"/>
      <point x="123" y="161" type="curve" smooth="yes"/>
      <point x="54" y="78"/>
      <point x="32" y="29"/>
      <point x="32" y="-32" type="curve" smooth="yes"/>
      <point x="32" y="-126"/>
      <point x="102" y="-188"/>
    </contour>
    <contour>
      <point x="199" y="464" type="line"/>
      <point x="267" y="464" type="line"/>
      <point x="267" y="534" type="line"/>
      <point x="199" y="534" type="line"/>
    </contour>
  </outline>
</glyph>
<glyph name="eth" format="2">
  <advance width="541"/>
  <unicode hex="00F0"/>
  <outline>
    <contour>
      <point x="269" y="-8" type="curve" smooth="yes"/>
      <point x="409" y="-8"/>
      <point x="488" y="92"/>
      <point x="488" y="281" type="curve" smooth="yes"/>
      <point x="488" y="444"/>
      <point x="430" y="564"/>
      <point x="316" y="640" type="curve"/>
      <point x="314" y="633" type="line"/>
      <point x="435" y="678" type="line"/>
      <point x="422" y="711" type="line"/>
      <point x="278" y="657" type="line"/>
      <point x="291" y="656" type="line"/>
      <point x="257" y="677"/>
      <point x="212" y="696"/>
      <point x="165" y="710" type="curve"/>
      <point x="153" y="677" type="line"/>
      <point x="188" y="667"/>
      <point x="219" y="654"/>
      <point x="247" y="639" type="curve"/>
      <point x="250" y="646" type="line"/>
      <point x="115" y="595" type="line"/>
      <point x="128" y="563" type="line"/>
      <point x="293" y="625" type="line"/>
      <point x="273" y="624" type="line"/>
      <point x="390" y="553"/>
      <point x="447" y="440"/>
      <point x="446" y="309" type="curve"/>
      <point x="464" y="309" type="line"/>
      <point x="440" y="422"/>
      <point x="374" y="481"/>
      <point x="271" y="481" type="curve" smooth="yes"/>
      <point x="140" y="481"/>
      <point x="53" y="386"/>
      <point x="53" y="237" type="curve" smooth="yes"/>
      <point x="53" y="87"/>
      <point x="138" y="-8"/>
    </contour>
    <contour>
      <point x="268" y="31" type="curve" smooth="yes"/>
      <point x="160" y="31"/>
      <point x="96" y="105"/>
      <point x="96" y="237" type="curve" smooth="yes"/>
      <point x="96" y="367"/>
      <point x="162" y="442"/>
      <point x="269" y="442" type="curve" smooth="yes"/>
      <point x="376" y="442"/>
      <point x="442" y="365"/>
      <point x="442" y="237" type="curve" smooth="yes"/>
      <point x="442" y="107"/>
      <point x="375" y="31"/>
    </contour>
  </outline>
</glyph>
<glyph name="divide" format="2">
  <advance width="600"/>
  <unicode hex="00F7"/>
  <outline>
    <contour>
      <point x="56" y="267" type="line"/>
      <point x="544" y="267" type="line"/>
      <point x="544" y="306" type="line"/>
      <point x="56" y="306" type="line"/>
    </contour>
    <contour>
      <point x="259" y="51" type="line"/>
      <point x="329" y="51" type="line"/>
      <point x="329" y="121" type="line"/>
      <point x="259" y="121" type="line"/>
    </contour>
    <contour>
      <point x="259" y="452" type="line"/>
      <point x="329" y="452" type="line"/>
      <point x="329" y="522" type="line"/>
      <point x="259" y="522" type="line"/>
    </contour>
  </outline>
</glyph>
<glyph name="Hbar" format="2">
  <advance width="781"/>
  <unicode hex="0126"/>
  <outline>
    <contour>
      <point x="111" y="0" type="line"/>
      <point x="153" y="0" type="line"/>
      <point x="153" y="338" type="line"/>
      <point x="628" y="338" type="line"/>
      <point x="628" y="0" type="line"/>
      <point x="670" y="0" type="line"/>
      <point x="670" y="527" type="line"/>
      <point x="766" y="527" type="line"/>
      <point x="766" y="565" type="line"/>
      <point x="670" y="565" type="line"/>
      <point x="670" y="705" type="line"/>
      <point x="628" y="705" type="line"/>
      <point x="628" y="565" type="line"/>
      <point x="153" y="565" type="line"/>
      <point x="153" y="705" type="line"/>
      <point x="111" y="705" type="line"/>
      <point x="111" y="565" type="line"/>
      <point x="15" y="565" type="line"/>
      <point x="15" y="527" type="line"/>
      <point x="111" y="527" type="line"/>
    </contour>
    <contour>
      <point x="153" y="377" type="line"/>
      <point x="153" y="527" type="line"/>
      <point x="628" y="527" type="line"/>
      <point x="628" y="377" type="line"/>
    </contour>
  </outline>
</glyph>
<glyph name="hbar" format="2">
  <advance width="553"/>
  <unicode hex="0127"/>
  <outline>
    <contour>
      <point x="85" y="0" type="line"/>
      <point x="127" y="0" type="line"/>
      <point x="127" y="320" type="line" smooth="yes"/>
      <point x="127" y="432"/>
      <point x="195" y="503"/>
      <point x="298" y="503" type="curve" smooth="yes"/>
      <point x="389" y="503"/>
      <point x="428" y="456"/>
      <point x="428" y="345" type="curve" smooth="yes"/>
      <point x="428" y="0" type="line"/>
      <point x="470" y="0" type="line"/>
      <point x="470" y="350" type="line" smooth="yes"/>
      <point x="470" y="479"/>
      <point x="413" y="542"/>
      <point x="298" y="542" type="curve" smooth="yes"/>
      <point x="211" y="542"/>
      <point x="140" y="496"/>
      <point x="115" y="412" type="curve"/>
      <point x="127" y="412" type="line"/>
      <point x="127" y="593" type="line"/>
      <point x="324" y="593" type="line"/>
      <point x="324" y="629" type="line"/>
      <point x="127" y="629" type="line"/>
      <point x="127" y="705" type="line"/>
      <point x="85" y="705" type="line"/>
      <point x="85" y="629" type="line"/>
      <point x="-10" y="629" type="line"/>
      <point x="-10" y="593" type="line"/>
      <point x="85" y="593" type="line"/>
    </contour>
  </outline>
</glyph>
<glyph name="kgreenlandic" format="2">
  <advance width="468"/>
  <unicode hex="0138"/>
  <anchor x="234" y="0" name="bottom"/>
  <anchor x="234" y="484" name="top"/>
  <outline>
    <contour>
      <point x="85" y="0" type="line"/>
      <point x="127" y="0" type="line"/>
      <point x="127" y="261" type="line"/>
      <point x="129" y="261" type="line"/>
      <point x="411" y="0" type="line"/>
      <point x="468" y="0" type="line"/>
      <point x="157" y="289" type="line"/>
      <point x="157" y="261" type="line"/>
      <point x="441" y="534" type="line"/>
      <point x="384" y="534" type="line"/>
      <point x="129" y="288" type="line"/>
      <point x="127" y="288" type="line"/>
      <point x="127" y="534" type="line"/>
      <point x="85" y="534" type="line"/>
    </contour>
  </outline>
</glyph>
<glyph name="Eng" format="2">
  <advance width="732"/>
  <unicode hex="014A"/>
  <anchor x="366" y="0" name="bottom"/>
  <anchor x="366" y="705" name="top"/>
  <outline>
    <contour>
      <point x="451" y="-193" type="line"/>
      <point x="494" y="-190" type="line" smooth="yes"/>
      <point x="584" y="-184"/>
      <point x="636" y="-124"/>
      <point x="636" y="-21" type="curve" smooth="yes"/>
      <point x="636" y="705" type="line"/>
      <point x="597" y="705" type="line"/>
      <point x="597" y="42" type="line"/>
      <point x="619" y="42" type="line"/>
      <point x="131" y="705" type="line"/>
      <point x="96" y="705" type="line"/>
      <point x="96" y="0" type="line"/>
      <point x="135" y="0" type="line"/>
      <point x="135" y="663" type="line"/>
      <point x="114" y="663" type="line"/>
      <point x="602" y="0" type="line"/>
      <point x="597" y="25" type="line"/>
      <point x="597" y="-22" type="line" smooth="yes"/>
      <point x="597" y="-102"/>
      <point x="559" y="-147"/>
      <point x="489" y="-152" type="curve" smooth="yes"/>
      <point x="448" y="-155" type="line"/>
    </contour>
  </outline>
</glyph>
<glyph name="eng" format="2">
  <advance width="553"/>
  <unicode hex="014B"/>
  <outline>
    <contour>
      <point x="285" y="-193" type="line"/>
      <point x="328" y="-190" type="line" smooth="yes"/>
      <point x="418" y="-184"/>
      <point x="470" y="-124"/>
      <point x="470" y="-21" type="curve" smooth="yes"/>
      <point x="470" y="350" type="line" smooth="yes"/>
      <point x="470" y="480"/>
      <point x="413" y="542"/>
      <point x="298" y="542" type="curve" smooth="yes"/>
      <point x="211" y="542"/>
      <point x="141" y="497"/>
      <point x="115" y="412" type="curve"/>
      <point x="127" y="412" type="line"/>
      <point x="127" y="534" type="line"/>
      <point x="85" y="534" type="line"/>
      <point x="85" y="0" type="line"/>
      <point x="127" y="0" type="line"/>
      <point x="127" y="320" type="line" smooth="yes"/>
      <point x="127" y="432"/>
      <point x="195" y="503"/>
      <point x="298" y="503" type="curve" smooth="yes"/>
      <point x="389" y="503"/>
      <point x="428" y="456"/>
      <point x="428" y="345" type="curve" smooth="yes"/>
      <point x="428" y="-22" type="line" smooth="yes"/>
      <point x="428" y="-102"/>
      <point x="391" y="-147"/>
      <point x="323" y="-152" type="curve" smooth="yes"/>
      <point x="282" y="-155" type="line"/>
    </contour>
  </outline>
</glyph>
<glyph name="dhook" format="2">
  <advance width="568"/>
  <unicode hex="0257"/>
  <outline>
    <contour>
      <point x="269" y="-8" type="curve" smooth="yes"/>
      <point x="362" y="-8"/>
      <point x="431" y="44"/>
      <point x="453" y="141" type="curve"/>
      <point x="442" y="141" type="line"/>
      <point x="442" y="0" type="line"/>
      <point x="483" y="0" type="line"/>
      <point x="483" y="566" type="line" smooth="yes"/>
      <point x="483" y="636"/>
      <point x="517" y="675"/>
      <point x="585" y="675" type="curve" smooth="yes"/>
      <point x="598" y="675"/>
      <point x="606" y="674"/>
      <point x="624" y="669" type="curve"/>
      <point x="630" y="706" type="line"/>
      <point x="615" y="711"/>
      <point x="601" y="713"/>
      <point x="583" y="713" type="curve" smooth="yes"/>
      <point x="491" y="713"/>
      <point x="441" y="661"/>
      <point x="441" y="564" type="curve" smooth="yes"/>
      <point x="441" y="393" type="line"/>
      <point x="453" y="393" type="line"/>
      <point x="431" y="490"/>
      <point x="362" y="542"/>
      <point x="269" y="542" type="curve" smooth="yes"/>
      <point x="138" y="542"/>
      <point x="53" y="446"/>
      <point x="53" y="267" type="curve" smooth="yes"/>
      <point x="53" y="89"/>
      <point x="139" y="-8"/>
    </contour>
    <contour>
      <point x="269" y="31" type="curve" smooth="yes"/>
      <point x="166" y="31"/>
      <point x="96" y="108"/>
      <point x="96" y="267" type="curve" smooth="yes"/>
      <point x="96" y="427"/>
      <point x="166" y="503"/>
      <point x="269" y="503" type="curve" smooth="yes"/>
      <point x="372" y="503"/>
      <point x="442" y="427"/>
      <point x="442" y="267" type="curve" smooth="yes"/>
      <point x="442" y="108"/>
      <point x="372" y="31"/>
    </contour>
  </outline>
</glyph>
<glyph name="schwa" format="2">
  <advance width="523"/>
  <unicode hex="0259"/>
  <outline>
    <contour>
      <point x="254" y="-8" type="curve" smooth="yes"/>
      <point x="379" y="-8"/>
      <point x="470" y="93"/>
      <point x="470" y="270" type="curve" smooth="yes"/>
      <point x="470" y="448"/>
      <point x="379" y="542"/>
      <point x="238" y="542" type="curve" smooth="yes"/>
      <point x="171" y="542"/>
      <point x="101" y="517"/>
      <point x="54" y="465" type="curve"/>
      <point x="78" y="435" type="line"/>
      <point x="128" y="484"/>
      <point x="183" y="503"/>
      <point x="239" y="503" type="curve" smooth="yes"/>
      <point x="353" y="503"/>
      <point x="427" y="427"/>
      <point x="427" y="269" type="curve" smooth="yes"/>
      <point x="427" y="263" type="line" smooth="yes"/>
      <point x="427" y="111"/>
      <point x="354" y="31"/>
      <point x="254" y="31" type="curve" smooth="yes"/>
      <point x="145" y="31"/>
      <point x="89" y="102"/>
      <point x="89" y="250" type="curve"/>
      <point x="70" y="236" type="line"/>
      <point x="444" y="236" type="line"/>
      <point x="444" y="274" type="line"/>
      <point x="48" y="274" type="line"/>
      <point x="48" y="248" type="line" smooth="yes"/>
      <point x="48" y="80"/>
      <point x="124" y="-8"/>
    </contour>
  </outline>
</glyph>
<glyph name="commaturnedmod" format="2">
  <advance width="500"/>
  <unicode hex="02BB"/>
  <anchor x="250" y="484" name="_top"/>
  <anchor x="250" y="685" name="top"/>
  <outline>
    <contour>
      <point x="215" y="610" type="line"/>
      <point x="284" y="610" type="line"/>
      <point x="284" y="677" type="line"/>
      <point x="233" y="677" type="line"/>
      <point x="252" y="669" type="line"/>
      <point x="252" y="692"/>
      <point x="256" y="716"/>
      <point x="283" y="744" type="curve"/>
      <point x="257" y="763" type="line"/>
      <point x="225" y="733"/>
      <point x="215" y="696"/>
      <point x="215" y="660" type="curve" smooth="yes"/>
    </contour>
  </outline>
</glyph>
<glyph name="ringhalfright" format="2">
  <advance width="500"/>
  <unicode hex="02BE"/>
  <anchor x="250" y="484" name="_top"/>
  <anchor x="250" y="685" name="top"/>
  <outline>
    <contour>
      <point x="250" y="606" type="line"/>
      <point x="306" y="606"/>
      <point x="347" y="647"/>
      <point x="347" y="700" type="curve" smooth="yes"/>
      <point x="347" y="753"/>
      <point x="306" y="795"/>
      <point x="250" y="795" type="curve"/>
      <point x="250" y="759" type="line"/>
      <point x="284" y="759"/>
      <point x="307" y="733"/>
      <point x="307" y="700" type="curve" smooth="yes"/>
      <point x="307" y="668"/>
      <point x="284" y="641"/>
      <point x="250" y="641" type="curve"/>
    </contour>
  </outline>
</glyph>
<glyph name="fourthtofinechinese" format="2">
  <advance width="500"/>
  <unicode hex="02CB"/>
  <anchor x="250" y="484" name="_top"/>
  <anchor x="250" y="685" name="top"/>
  <outline>
    <contour>
      <point x="232" y="599" type="line"/>
      <point x="268" y="599" type="line"/>
      <point x="164" y="779" type="line"/>
      <point x="110" y="779" type="line"/>
    </contour>
  </outline>
</glyph>
<glyph name="circumflexcomb" format="2">
  <unicode hex="0302"/>
  <anchor x="0" y="484" name="_top"/>
  <anchor x="0" y="685" name="top"/>
  <outline>
    <contour>
      <point x="-133" y="599" type="line"/>
      <point x="-98" y="599" type="line"/>
      <point x="0" y="739" type="line"/>
      <point x="98" y="599" type="line"/>
      <point x="133" y="599" type="line"/>
      <point x="24" y="779" type="line"/>
      <point x="-24" y="779" type="line"/>
    </contour>
  </outline>
</glyph>
<glyph name="tildecomb" format="2">
  <unicode hex="0303"/>
  <anchor x="0" y="484" name="_top"/>
  <anchor x="0" y="685" name="top"/>
  <outline>
    <contour>
      <point x="-137" y="641" type="line"/>
      <point x="-130" y="690"/>
      <point x="-107" y="719"/>
      <point x="-72" y="719" type="curve" smooth="yes"/>
      <point x="-53" y="719"/>
      <point x="-37" y="709"/>
      <point x="-12" y="686" type="curve" smooth="yes"/>
      <point x="22" y="657"/>
      <point x="44" y="643"/>
      <point x="73" y="643" type="curve" smooth="yes"/>
      <point x="124" y="643"/>
      <point x="161" y="683"/>
      <point x="168" y="753" type="curve"/>
      <point x="137" y="755" type="line"/>
      <point x="130" y="706"/>
      <point x="107" y="677"/>
      <point x="72" y="677" type="curve" smooth="yes"/>
      <point x="53" y="677"/>
      <point x="36" y="688"/>
      <point x="9" y="712" type="curve" smooth="yes"/>
      <point x="-24" y="741"/>
      <point x="-44" y="753"/>
      <point x="-72" y="753" type="curve" smooth="yes"/>
      <point x="-124" y="753"/>
      <point x="-161" y="713"/>
      <point x="-168" y="643" type="curve"/>
    </contour>
  </outline>
</glyph>
<glyph name="brevecomb" format="2">
  <unicode hex="0306"/>
  <anchor x="0" y="484" name="_top"/>
  <anchor x="0" y="685" name="top"/>
  <outline>
    <contour>
      <point x="0" y="597" type="curve" smooth="yes"/>
      <point x="83" y="597"/>
      <point x="137" y="661"/>
      <point x="144" y="765" type="curve"/>
      <point x="111" y="769" type="line"/>
      <point x="106" y="682"/>
      <point x="66" y="633"/>
      <point x="0" y="633" type="curve" smooth="yes"/>
      <point x="-66" y="633"/>
      <point x="-106" y="682"/>
      <point x="-111" y="769" type="curve"/>
      <point x="-144" y="765" type="line"/>
      <point x="-137" y="661"/>
      <point x="-83" y="597"/>
    </contour>
  </outline>
</glyph>
<glyph name="horncomb" format="2">
  <unicode hex="031B"/>
  <anchor x="-1" y="534" name="_topright"/>
  <outline>
    <contour>
      <point x="14" y="496" type="line"/>
      <point x="108" y="500"/>
      <point x="159" y="552"/>
      <point x="159" y="641" type="curve" smooth="yes"/>
      <point x="159" y="661" type="line"/>
      <point x="119" y="661" type="line"/>
      <point x="119" y="649" type="line" smooth="yes"/>
      <point x="119" y="577"/>
      <point x="96" y="535"/>
      <point x="-1" y="534" type="curve"/>
      <point x="-1" y="509" type="line"/>
    </contour>
  </outline>
</glyph>
<glyph name="brevebelowcomb" format="2">
  <unicode hex="032E"/>
  <anchor x="0" y="0" name="_bottom"/>
  <anchor x="0" y="-170" name="bottom"/>
  <outline>
    <contour>
      <point x="0" y="-215" type="curve" smooth="yes"/>
      <point x="83" y="-215"/>
      <point x="137" y="-160"/>
      <point x="144" y="-68" type="curve"/>
      <point x="111" y="-64" type="line"/>
      <point x="106" y="-137"/>
      <point x="66" y="-179"/>
      <point x="0" y="-179" type="curve" smooth="yes"/>
      <point x="-66" y="-179"/>
      <point x="-106" y="-137"/>
      <point x="-111" y="-64" type="curve"/>
      <point x="-144" y="-68" type="line"/>
      <point x="-137" y="-160"/>
      <point x="-83" y="-215"/>
    </contour>
  </outline>
</glyph>
<glyph name="Tse-cy" format="2">
  <advance width="773"/>
  <unicode hex="0426"/>
  <outline>
    <contour>
      <point x="710" y="-150" type="line"/>
      <point x="750" y="-150" type="line"/>
      <point x="750" y="39" type="line"/>
      <point x="650" y="39" type="line"/>
      <point x="650" y="705" type="line"/>
      <point x="608" y="705" type="line"/>
      <point x="608" y="39" type="line"/>
      <point x="138" y="39" type="line"/>
      <point x="138" y="705" type="line"/>
      <point x="96" y="705" type="line"/>
      <point x="96" y="0" type="line"/>
      <point x="710" y="0" type="line"/>
    </contour>
  </outline>
</glyph>
<glyph name="Sha-cy" format="2">
  <advance width="1038"/>
  <unicode hex="0428"/>
  <outline>
    <contour>
      <point x="96" y="0" type="line"/>
      <point x="942" y="0" type="line"/>
      <point x="942" y="705" type="line"/>
      <point x="900" y="705" type="line"/>
      <point x="900" y="39" type="line"/>
      <point x="540" y="39" type="line"/>
      <point x="540" y="705" type="line"/>
      <point x="498" y="705" type="line"/>
      <point x="498" y="39" type="line"/>
      <point x="138" y="39" type="line"/>
      <point x="138" y="705" type="line"/>
      <point x="96" y="705" type="line"/>
    </contour>
  </outline>
</glyph>
<glyph name="be-cy" format="2">
  <advance width="544"/>
  <unicode hex="0431"/>
  <outline>
    <contour>
      <point x="272" y="-8" type="curve" smooth="yes"/>
      <point x="403" y="-8"/>
      <point x="488" y="89"/>
      <point x="488" y="267" type="curve" smooth="yes"/>
      <point x="488" y="445"/>
      <point x="403" y="542"/>
      <point x="276" y="542" type="curve" smooth="yes"/>
      <point x="190" y="542"/>
      <point x="112" y="491"/>
      <point x="90" y="393" type="curve"/>
      <point x="99" y="393" type="line"/>
      <point x="99" y="427" type="line" smooth="yes"/>
      <point x="99" y="531"/>
      <point x="150" y="603"/>
      <point x="263" y="631" type="curve" smooth="yes"/>
      <point x="458" y="679" type="line"/>
      <point x="443" y="717" type="line"/>
      <point x="266" y="673" type="line" smooth="yes"/>
      <point x="117" y="636"/>
      <point x="56" y="557"/>
      <point x="56" y="388" type="curve" smooth="yes"/>
      <point x="56" y="282" type="line" smooth="yes"/>
      <point x="56" y="88"/>
      <point x="141" y="-8"/>
    </contour>
    <contour>
      <point x="272" y="31" type="curve" smooth="yes"/>
      <point x="168" y="31"/>
      <point x="99" y="106"/>
      <point x="99" y="272" type="curve" smooth="yes"/>
      <point x="99" y="427"/>
      <point x="169" y="503"/>
      <point x="272" y="503" type="curve" smooth="yes"/>
      <point x="376" y="503"/>
      <point x="445" y="427"/>
      <point x="445" y="267" type="curve" smooth="yes"/>
      <point x="445" y="106"/>
      <point x="376" y="31"/>
    </contour>
  </outline>
</glyph>
<glyph name="ze-cy" format="2">
  <advance width="477"/>
  <unicode hex="0437"/>
  <anchor x="237" y="0" name="bottom"/>
  <anchor x="237" y="484" name="top"/>
  <outline>
    <contour>
      <point x="231" y="-8" type="curve" smooth="yes"/>
      <point x="362" y="-8"/>
      <point x="424" y="54"/>
      <point x="424" y="145" type="curve" smooth="yes"/>
      <point x="424" y="223"/>
      <point x="364" y="278"/>
      <point x="291" y="278" type="curve"/>
      <point x="291" y="266" type="line"/>
      <point x="357" y="272"/>
      <point x="409" y="324"/>
      <point x="409" y="394" type="curve" smooth="yes"/>
      <point x="409" y="490"/>
      <point x="345" y="542"/>
      <point x="233" y="542" type="curve" smooth="yes"/>
      <point x="162" y="542"/>
      <point x="97" y="523"/>
      <point x="40" y="470" type="curve"/>
      <point x="63" y="437" type="line"/>
      <point x="116" y="485"/>
      <point x="170" y="503"/>
      <point x="233" y="503" type="curve" smooth="yes"/>
      <point x="318" y="503"/>
      <point x="366" y="463"/>
      <point x="366" y="394" type="curve" smooth="yes"/>
      <point x="366" y="327"/>
      <point x="322" y="290"/>
      <point x="246" y="290" type="curve" smooth="yes"/>
      <point x="158" y="290" type="line"/>
      <point x="158" y="254" type="line"/>
      <point x="254" y="254" type="line" smooth="yes"/>
      <point x="337" y="254"/>
      <point x="381" y="215"/>
      <point x="381" y="145" type="curve" smooth="yes"/>
      <point x="381" y="73"/>
      <point x="338" y="31"/>
      <point x="231" y="31" type="curve" smooth="yes"/>
      <point x="161" y="31"/>
      <point x="107" y="52"/>
      <point x="61" y="101" type="curve"/>
      <point x="37" y="68" type="line"/>
      <point x="79" y="20"/>
      <point x="151" y="-8"/>
    </contour>
  </outline>
</glyph>
<glyph name="em-cy" format="2">
  <advance width="636"/>
  <unicode hex="043C"/>
  <anchor x="510" y="0" name="bottomright"/>
  <outline>
    <contour>
      <point x="88" y="0" type="line"/>
      <point x="126" y="0" type="line"/>
      <point x="126" y="483" type="line"/>
      <point x="106" y="483" type="line"/>
      <point x="305" y="85" type="line"/>
      <point x="331" y="85" type="line"/>
      <point x="531" y="483" type="line"/>
      <point x="510" y="483" type="line"/>
      <point x="510" y="0" type="line"/>
      <point x="548" y="0" type="line"/>
      <point x="548" y="534" type="line"/>
      <point x="513" y="534" type="line"/>
      <point x="318" y="138" type="line"/>
      <point x="124" y="534" type="line"/>
      <point x="88" y="534" type="line"/>
    </contour>
  </outline>
</glyph>
<glyph name="en-cy" format="2">
  <advance width="568"/>
  <unicode hex="043D"/>
  <anchor x="438" y="0" name="bottomright"/>
  <outline>
    <contour>
      <point x="88" y="0" type="line"/>
      <point x="130" y="0" type="line"/>
      <point x="130" y="258" type="line"/>
      <point x="438" y="258" type="line"/>
      <point x="438" y="0" type="line"/>
      <point x="480" y="0" type="line"/>
      <point x="480" y="534" type="line"/>
      <point x="438" y="534" type="line"/>
      <point x="438" y="295" type="line"/>
      <point x="130" y="295" type="line"/>
      <point x="130" y="534" type="line"/>
      <point x="88" y="534" type="line"/>
    </contour>
  </outline>
</glyph>
<glyph name="pe-cy" format="2">
  <advance width="565"/>
  <unicode hex="043F"/>
  <anchor x="435" y="0" name="bottomright"/>
  <outline>
    <contour>
      <point x="88" y="0" type="line"/>
      <point x="130" y="0" type="line"/>
      <point x="130" y="498" type="line"/>
      <point x="435" y="498" type="line"/>
      <point x="435" y="0" type="line"/>
      <point x="477" y="0" type="line"/>
      <point x="477" y="534" type="line"/>
      <point x="88" y="534" type="line"/>
    </contour>
  </outline>
</glyph>
<glyph name="softsign-cy" format="2">
  <advance width="523"/>
  <unicode hex="044C"/>
  <outline>
    <contour>
      <point x="88" y="0" type="line"/>
      <point x="286" y="0" type="line" smooth="yes"/>
      <point x="412" y="0"/>
      <point x="475" y="60"/>
      <point x="475" y="164" type="curve" smooth="yes"/>
      <point x="475" y="268"/>
      <point x="412" y="328"/>
      <point x="286" y="328" type="curve" smooth="yes"/>
      <point x="130" y="328" type="line"/>
      <point x="130" y="534" type="line"/>
      <point x="88" y="534" type="line"/>
    </contour>
    <contour>
      <point x="130" y="36" type="line"/>
      <point x="130" y="292" type="line"/>
      <point x="288" y="292" type="line" smooth="yes"/>
      <point x="381" y="292"/>
      <point x="431" y="251"/>
      <point x="431" y="164" type="curve" smooth="yes"/>
      <point x="431" y="77"/>
      <point x="381" y="36"/>
      <point x="288" y="36" type="curve" smooth="yes"/>
    </contour>
  </outline>
</glyph>
<glyph name="ia-cy" format="2">
  <advance width="520"/>
  <unicode hex="044F"/>
  <outline>
    <contour>
      <point x="50" y="0" type="line"/>
      <point x="99" y="0" type="line"/>
      <point x="167" y="131" type="line" smooth="yes"/>
      <point x="196" y="186"/>
      <point x="235" y="223"/>
      <point x="301" y="223" type="curve" smooth="yes"/>
      <point x="390" y="223" type="line"/>
      <point x="390" y="0" type="line"/>
      <point x="432" y="0" type="line"/>
      <point x="432" y="534" type="line"/>
      <point x="241" y="534" type="line" smooth="yes"/>
      <point x="130" y="534"/>
      <point x="70" y="479"/>
      <point x="70" y="380" type="curve" smooth="yes"/>
      <point x="70" y="278"/>
      <point x="139" y="224"/>
      <point x="241" y="224" type="curve"/>
      <point x="240" y="230" type="line"/>
      <point x="230" y="230" type="line" smooth="yes"/>
      <point x="192" y="230"/>
      <point x="154" y="200"/>
      <point x="129" y="153" type="curve" smooth="yes"/>
    </contour>
    <contour>
      <point x="243" y="260" type="line" smooth="yes"/>
      <point x="155" y="260"/>
      <point x="113" y="304"/>
      <point x="113" y="380" type="curve" smooth="yes"/>
      <point x="113" y="455"/>
      <point x="155" y="498"/>
      <point x="243" y="498" type="curve" smooth="yes"/>
      <point x="390" y="498" type="line"/>
      <point x="390" y="260" type="line"/>
    </contour>
  </outline>
</glyph>
<glyph name="e-cy" format="2">
  <advance width="471"/>
  <unicode hex="0454"/>
  <outline>
    <contour>
      <point x="277" y="-8" type="curve" smooth="yes"/>
      <point x="342" y="-8"/>
      <point x="410" y="17"/>
      <point x="447" y="68" type="curve"/>
      <point x="423" y="100" type="line"/>
      <point x="384" y="51"/>
      <point x="329" y="31"/>
      <point x="276" y="31" type="curve" smooth="yes"/>
      <point x="167" y="31"/>
      <point x="101" y="111"/>
      <point x="99" y="265" type="curve"/>
      <point x="90" y="256" type="line"/>
      <point x="359" y="256" type="line"/>
      <point x="359" y="292" type="line"/>
      <point x="91" y="292" type="line"/>
      <point x="99" y="283" type="line"/>
      <point x="102" y="421"/>
      <point x="162" y="503"/>
      <point x="276" y="503" type="curve" smooth="yes"/>
      <point x="334" y="503"/>
      <point x="386" y="481"/>
      <point x="423" y="434" type="curve"/>
      <point x="447" y="466" type="line"/>
      <point x="413" y="514"/>
      <point x="349" y="542"/>
      <point x="277" y="542" type="curve" smooth="yes"/>
      <point x="147" y="542"/>
      <point x="56" y="455"/>
      <point x="56" y="272" type="curve" smooth="yes"/>
      <point x="56" y="90"/>
      <point x="142" y="-8"/>
    </contour>
  </outline>
</glyph>
<glyph name="lje-cy" format="2">
  <advance width="859"/>
  <unicode hex="0459"/>
  <outline>
    <contour>
      <point x="48" y="-9" type="line"/>
      <point x="155" y="52"/>
      <point x="190" y="154"/>
      <point x="190" y="425" type="curve" smooth="yes"/>
      <point x="190" y="498" type="line"/>
      <point x="424" y="498" type="line"/>
      <point x="424" y="0" type="line"/>
      <point x="622" y="0" type="line" smooth="yes"/>
      <point x="748" y="0"/>
      <point x="811" y="60"/>
      <point x="811" y="164" type="curve" smooth="yes"/>
      <point x="811" y="268"/>
      <point x="748" y="328"/>
      <point x="622" y="328" type="curve" smooth="yes"/>
      <point x="466" y="328" type="line"/>
      <point x="466" y="534" type="line"/>
      <point x="149" y="534" type="line"/>
      <point x="149" y="426" type="line" smooth="yes"/>
      <point x="149" y="166"/>
      <point x="122" y="80"/>
      <point x="26" y="24" type="curve"/>
    </contour>
    <contour>
      <point x="466" y="36" type="line"/>
      <point x="466" y="292" type="line"/>
      <point x="624" y="292" type="line" smooth="yes"/>
      <point x="717" y="292"/>
      <point x="767" y="251"/>
      <point x="767" y="164" type="curve" smooth="yes"/>
      <point x="767" y="77"/>
      <point x="717" y="36"/>
      <point x="624" y="36" type="curve" smooth="yes"/>
    </contour>
  </outline>
</glyph>
<glyph name="nje-cy" format="2">
  <advance width="873"/>
  <unicode hex="045A"/>
  <outline>
    <contour>
      <point x="88" y="0" type="line"/>
      <point x="130" y="0" type="line"/>
      <point x="130" y="258" type="line"/>
      <point x="438" y="258" type="line"/>
      <point x="438" y="0" type="line"/>
      <point x="636" y="0" type="line" smooth="yes"/>
      <point x="762" y="0"/>
      <point x="825" y="60"/>
      <point x="825" y="164" type="curve" smooth="yes"/>
      <point x="825" y="268"/>
      <point x="762" y="328"/>
      <point x="636" y="328" type="curve" smooth="yes"/>
      <point x="480" y="328" type="line"/>
      <point x="480" y="534" type="line"/>
      <point x="438" y="534" type="line"/>
      <point x="438" y="295" type="line"/>
      <point x="130" y="295" type="line"/>
      <point x="130" y="534" type="line"/>
      <point x="88" y="534" type="line"/>
    </contour>
    <contour>
      <point x="480" y="36" type="line"/>
      <point x="480" y="292" type="line"/>
      <point x="638" y="292" type="line" smooth="yes"/>
      <point x="731" y="292"/>
      <point x="781" y="251"/>
      <point x="781" y="164" type="curve" smooth="yes"/>
      <point x="781" y="77"/>
      <point x="731" y="36"/>
      <point x="638" y="36" type="curve" smooth="yes"/>
    </contour>
  </outline>
</glyph>
<glyph name="yat-cy" format="2">
  <advance width="598"/>
  <unicode hex="0463"/>
  <outline>
    <contour>
      <point x="163" y="0" type="line"/>
      <point x="361" y="0" type="line" smooth="yes"/>
      <point x="487" y="0"/>
      <point x="550" y="60"/>
      <point x="550" y="165" type="curve" smooth="yes"/>
      <point x="550" y="269"/>
      <point x="487" y="329"/>
      <point x="361" y="329" type="curve" smooth="yes"/>
      <point x="205" y="329" type="line"/>
      <point x="205" y="498" type="line"/>
      <point x="365" y="498" type="line"/>
      <point x="365" y="534" type="line"/>
      <point x="205" y="534" type="line"/>
      <point x="205" y="705" type="line"/>
      <point x="163" y="705" type="line"/>
      <point x="163" y="534" type="line"/>
      <point x="3" y="534" type="line"/>
      <point x="3" y="498" type="line"/>
      <point x="163" y="498" type="line"/>
    </contour>
    <contour>
      <point x="205" y="37" type="line"/>
      <point x="205" y="292" type="line"/>
      <point x="363" y="292" type="line" smooth="yes"/>
      <point x="456" y="292"/>
      <point x="506" y="252"/>
      <point x="506" y="165" type="curve" smooth="yes"/>
      <point x="506" y="78"/>
      <point x="456" y="37"/>
      <point x="363" y="37" type="curve" smooth="yes"/>
    </contour>
  </outline>
</glyph>
<glyph name="yusbig-cy" format="2">
  <advance width="748"/>
  <unicode hex="046B"/>
  <outline>
    <contour>
      <point x="8" y="0" type="line"/>
      <point x="53" y="0" type="line"/>
      <point x="147" y="170" type="line" smooth="yes"/>
      <point x="185" y="240"/>
      <point x="211" y="260"/>
      <point x="272" y="260" type="curve" smooth="yes"/>
      <point x="353" y="260" type="line"/>
      <point x="353" y="0" type="line"/>
      <point x="395" y="0" type="line"/>
      <point x="395" y="260" type="line"/>
      <point x="477" y="260" type="line" smooth="yes"/>
      <point x="538" y="260"/>
      <point x="563" y="240"/>
      <point x="602" y="170" type="curve" smooth="yes"/>
      <point x="695" y="0" type="line"/>
      <point x="740" y="0" type="line"/>
      <point x="644" y="175" type="line" smooth="yes"/>
      <point x="593" y="266"/>
      <point x="563" y="296"/>
      <point x="487" y="296" type="curve" smooth="yes"/>
      <point x="406" y="296" type="line"/>
      <point x="406" y="289" type="line"/>
      <point x="599" y="534" type="line"/>
      <point x="149" y="534" type="line"/>
      <point x="343" y="289" type="line"/>
      <point x="343" y="296" type="line"/>
      <point x="261" y="296" type="line" smooth="yes"/>
      <point x="185" y="296"/>
      <point x="155" y="266"/>
      <point x="104" y="175" type="curve" smooth="yes"/>
    </contour>
    <contour>
      <point x="373" y="312" type="line"/>
      <point x="218" y="512" type="line"/>
      <point x="218" y="498" type="line"/>
      <point x="531" y="498" type="line"/>
      <point x="531" y="512" type="line"/>
      <point x="375" y="312" type="line"/>
    </contour>
  </outline>
</glyph>
<glyph name="ertick-cy" format="2">
  <advance width="574"/>
  <unicode hex="048F"/>
  <outline>
    <contour>
      <point x="88" y="-180" type="line"/>
      <point x="130" y="-180" type="line"/>
      <point x="130" y="141" type="line"/>
      <point x="118" y="141" type="line"/>
      <point x="141" y="45"/>
      <point x="210" y="-8"/>
      <point x="303" y="-8" type="curve" smooth="yes"/>
      <point x="348" y="-8"/>
      <point x="387" y="4"/>
      <point x="417" y="24" type="curve"/>
      <point x="411" y="25" type="line"/>
      <point x="459" y="-36" type="line"/>
      <point x="485" y="-17" type="line"/>
      <point x="435" y="47" type="line"/>
      <point x="436" y="38" type="line"/>
      <point x="487" y="82"/>
      <point x="518" y="160"/>
      <point x="518" y="267" type="curve" smooth="yes"/>
      <point x="518" y="446"/>
      <point x="433" y="542"/>
      <point x="303" y="542" type="curve" smooth="yes"/>
      <point x="210" y="542"/>
      <point x="141" y="490"/>
      <point x="118" y="394" type="curve"/>
      <point x="130" y="394" type="line"/>
      <point x="130" y="534" type="line"/>
      <point x="88" y="534" type="line"/>
    </contour>
    <contour>
      <point x="302" y="31" type="curve" smooth="yes"/>
      <point x="199" y="31"/>
      <point x="129" y="108"/>
      <point x="129" y="267" type="curve" smooth="yes"/>
      <point x="129" y="427"/>
      <point x="199" y="503"/>
      <point x="302" y="503" type="curve" smooth="yes"/>
      <point x="405" y="503"/>
      <point x="475" y="427"/>
      <point x="475" y="267" type="curve" smooth="yes"/>
      <point x="475" y="173"/>
      <point x="451" y="109"/>
      <point x="411" y="72" type="curve"/>
      <point x="418" y="69" type="line"/>
      <point x="368" y="132" type="line"/>
      <point x="342" y="113" type="line"/>
      <point x="392" y="50" type="line"/>
      <point x="393" y="57" type="line"/>
      <point x="369" y="41"/>
      <point x="339" y="31"/>
    </contour>
  </outline>
</glyph>
<glyph name="ghestroke-cy" format="2">
  <advance width="432"/>
  <unicode hex="0493"/>
  <outline>
    <contour>
      <point x="105" y="0" type="line"/>
      <point x="147" y="0" type="line"/>
      <point x="147" y="251" type="line"/>
      <point x="297" y="251" type="line"/>
      <point x="297" y="288" type="line"/>
      <point x="147" y="288" type="line"/>
      <point x="147" y="497" type="line"/>
      <point x="420" y="497" type="line"/>
      <point x="420" y="534" type="line"/>
      <point x="105" y="534" type="line"/>
      <point x="105" y="288" type="line"/>
      <point x="5" y="288" type="line"/>
      <point x="5" y="251" type="line"/>
      <point x="105" y="251" type="line"/>
    </contour>
  </outline>
</glyph>
<glyph name="ghemiddlehook-cy" format="2">
  <advance width="529"/>
  <unicode hex="0495"/>
  <outline>
    <contour>
      <point x="303" y="-185" type="line"/>
      <point x="438" y="-157"/>
      <point x="477" y="-82"/>
      <point x="477" y="55" type="curve" smooth="yes"/>
      <point x="477" y="157" type="line" smooth="yes"/>
      <point x="477" y="292"/>
      <point x="419" y="357"/>
      <point x="302" y="357" type="curve" smooth="yes"/>
      <point x="214" y="357"/>
      <point x="143" y="307"/>
      <point x="118" y="225" type="curve"/>
      <point x="130" y="228" type="line"/>
      <point x="130" y="497" type="line"/>
      <point x="403" y="497" type="line"/>
      <point x="403" y="534" type="line"/>
      <point x="88" y="534" type="line"/>
      <point x="88" y="0" type="line"/>
      <point x="130" y="0" type="line"/>
      <point x="130" y="132" type="line" smooth="yes"/>
      <point x="130" y="244"/>
      <point x="199" y="318"/>
      <point x="303" y="318" type="curve" smooth="yes"/>
      <point x="396" y="318"/>
      <point x="435" y="267"/>
      <point x="435" y="152" type="curve" smooth="yes"/>
      <point x="435" y="52" type="line" smooth="yes"/>
      <point x="435" y="-62"/>
      <point x="409" y="-123"/>
      <point x="294" y="-148" type="curve"/>
    </contour>
  </outline>
</glyph>
<glyph name="kastroke-cy" format="2">
  <advance width="497"/>
  <unicode hex="049F"/>
  <outline>
    <contour>
      <point x="88" y="0" type="line"/>
      <point x="130" y="0" type="line"/>
      <point x="130" y="260" type="line"/>
      <point x="226" y="260" type="line" smooth="yes"/>
      <point x="287" y="260"/>
      <point x="312" y="240"/>
      <point x="351" y="170" type="curve" smooth="yes"/>
      <point x="444" y="0" type="line"/>
      <point x="489" y="0" type="line"/>
      <point x="393" y="175" type="line" smooth="yes"/>
      <point x="342" y="267"/>
      <point x="315" y="287"/>
      <point x="258" y="295" type="curve"/>
      <point x="278" y="283" type="line"/>
      <point x="462" y="534" type="line"/>
      <point x="414" y="534" type="line"/>
      <point x="239" y="296" type="line"/>
      <point x="130" y="296" type="line"/>
      <point x="130" y="592" type="line"/>
      <point x="327" y="592" type="line"/>
      <point x="327" y="628" type="line"/>
      <point x="130" y="628" type="line"/>
      <point x="130" y="705" type="line"/>
      <point x="88" y="705" type="line"/>
      <point x="88" y="628" type="line"/>
      <point x="-7" y="628" type="line"/>
      <point x="-7" y="592" type="line"/>
      <point x="88" y="592" type="line"/>
    </contour>
  </outline>
</glyph>
<glyph name="enghe-cy" format="2">
  <advance width="727"/>
  <unicode hex="04A5"/>
  <outline>
    <contour>
      <point x="88" y="0" type="line"/>
      <point x="130" y="0" type="line"/>
      <point x="130" y="258" type="line"/>
      <point x="438" y="258" type="line"/>
      <point x="438" y="0" type="line"/>
      <point x="480" y="0" type="line"/>
      <point x="480" y="497" type="line"/>
      <point x="715" y="497" type="line"/>
      <point x="715" y="534" type="line"/>
      <point x="438" y="534" type="line"/>
      <point x="438" y="295" type="line"/>
      <point x="130" y="295" type="line"/>
      <point x="130" y="534" type="line"/>
      <point x="88" y="534" type="line"/>
    </contour>
  </outline>
</glyph>
<glyph name="ustraight-cy" format="2">
  <advance width="510"/>
  <unicode hex="04AF"/>
  <anchor x="255" y="-30" name="center"/>
  <outline>
    <contour>
      <point x="234" y="-180" type="line"/>
      <point x="276" y="-180" type="line"/>
      <point x="276" y="-10" type="line"/>
      <point x="485" y="534" type="line"/>
      <point x="438" y="534" type="line"/>
      <point x="243" y="16" type="line"/>
      <point x="267" y="16" type="line"/>
      <point x="73" y="534" type="line"/>
      <point x="25" y="534" type="line"/>
      <point x="234" y="-10" type="line"/>
    </contour>
  </outline>
</glyph>
<glyph name="cheverticalstroke-cy" format="2">
  <advance width="532"/>
  <unicode hex="04B9"/>
  <outline>
    <contour>
      <point x="402" y="0" type="line"/>
      <point x="444" y="0" type="line"/>
      <point x="444" y="534" type="line"/>
      <point x="402" y="534" type="line"/>
      <point x="402" y="275" type="line"/>
      <point x="361" y="245"/>
      <point x="320" y="233"/>
      <point x="269" y="232" type="curve"/>
      <point x="279" y="224" type="line"/>
      <point x="279" y="374" type="line"/>
      <point x="243" y="374" type="line"/>
      <point x="243" y="224" type="line"/>
      <point x="254" y="232" type="line"/>
      <point x="155" y="233"/>
      <point x="109" y="280"/>
      <point x="109" y="385" type="curve" smooth="yes"/>
      <point x="109" y="534" type="line"/>
      <point x="67" y="534" type="line"/>
      <point x="67" y="384" type="line" smooth="yes"/>
      <point x="67" y="256"/>
      <point x="126" y="194"/>
      <point x="256" y="193" type="curve"/>
      <point x="243" y="202" type="line"/>
      <point x="243" y="78" type="line"/>
      <point x="279" y="78" type="line"/>
      <point x="279" y="203" type="line"/>
      <point x="271" y="193" type="line"/>
      <point x="318" y="194"/>
      <point x="365" y="208"/>
      <point x="402" y="234" type="curve"/>
    </contour>
  </outline>
</glyph>
<glyph name="Cheabkhasian-cy" format="2">
  <advance width="888"/>
  <unicode hex="04BC"/>
  <anchor x="576" y="0" name="ogonek"/>
  <outline>
    <contour>
      <point x="553" y="-8" type="curve" smooth="yes"/>
      <point x="644" y="-8"/>
      <point x="730" y="20"/>
      <point x="795" y="80" type="curve"/>
      <point x="774" y="115" type="line"/>
      <point x="706" y="55"/>
      <point x="635" y="33"/>
      <point x="554" y="33" type="curve" smooth="yes"/>
      <point x="357" y="33"/>
      <point x="253" y="145"/>
      <point x="249" y="340" type="curve"/>
      <point x="239" y="329" type="line"/>
      <point x="821" y="329" type="line"/>
      <point x="821" y="357" type="line" smooth="yes"/>
      <point x="821" y="573"/>
      <point x="718" y="713"/>
      <point x="518" y="713" type="curve" smooth="yes"/>
      <point x="323" y="713"/>
      <point x="206" y="578"/>
      <point x="204" y="356" type="curve"/>
      <point x="213" y="368" type="line"/>
      <point x="186" y="368" type="line" smooth="yes"/>
      <point x="105" y="368"/>
      <point x="67" y="403"/>
      <point x="67" y="486" type="curve" smooth="yes"/>
      <point x="67" y="542" type="line"/>
      <point x="25" y="542" type="line"/>
      <point x="25" y="483" type="line" smooth="yes"/>
      <point x="25" y="380"/>
      <point x="80" y="329"/>
      <point x="187" y="329" type="curve" smooth="yes"/>
      <point x="215" y="329" type="line"/>
      <point x="204" y="339" type="line"/>
      <point x="209" y="123"/>
      <point x="334" y="-8"/>
    </contour>
    <contour>
      <point x="519" y="672" type="curve" smooth="yes"/>
      <point x="689" y="672"/>
      <point x="778" y="559"/>
      <point x="778" y="352" type="curve"/>
      <point x="789" y="368" type="line"/>
      <point x="240" y="368" type="line"/>
      <point x="249" y="356" type="line"/>
      <point x="250" y="556"/>
      <point x="348" y="672"/>
    </contour>
  </outline>
</glyph>
<glyph name="kahook-cy" format="2">
  <advance width="514"/>
  <unicode hex="04C4"/>
  <outline>
    <contour>
      <point x="288" y="-185" type="line"/>
      <point x="423" y="-157"/>
      <point x="462" y="-82"/>
      <point x="462" y="54" type="curve" smooth="yes"/>
      <point x="462" y="93" type="line" smooth="yes"/>
      <point x="462" y="236"/>
      <point x="386" y="296"/>
      <point x="261" y="296" type="curve"/>
      <point x="278" y="283" type="line"/>
      <point x="462" y="534" type="line"/>
      <point x="415" y="534" type="line"/>
      <point x="239" y="296" type="line"/>
      <point x="130" y="296" type="line"/>
      <point x="130" y="534" type="line"/>
      <point x="88" y="534" type="line"/>
      <point x="88" y="0" type="line"/>
      <point x="130" y="0" type="line"/>
      <point x="130" y="260" type="line"/>
      <point x="264" y="260" type="line" smooth="yes"/>
      <point x="371" y="260"/>
      <point x="420" y="210"/>
      <point x="420" y="89" type="curve" smooth="yes"/>
      <point x="420" y="51" type="line" smooth="yes"/>
      <point x="420" y="-62"/>
      <point x="394" y="-123"/>
      <point x="279" y="-148" type="curve"/>
    </contour>
  </outline>
</glyph>
<glyph name="dzeabkhasian-cy" format="2">
  <advance width="476"/>
  <unicode hex="04E1"/>
  <outline>
    <contour>
      <point x="223" y="-188" type="curve" smooth="yes"/>
      <point x="361" y="-188"/>
      <point x="441" y="-106"/>
      <point x="441" y="34" type="curve" smooth="yes"/>
      <point x="441" y="163"/>
      <point x="364" y="235"/>
      <point x="227" y="235" type="curve" smooth="yes"/>
      <point x="168" y="235" type="line"/>
      <point x="168" y="213" type="line"/>
      <point x="411" y="505" type="line"/>
      <point x="411" y="534" type="line"/>
      <point x="38" y="534" type="line"/>
      <point x="38" y="497" type="line"/>
      <point x="366" y="497" type="line"/>
      <point x="366" y="511" type="line"/>
      <point x="126" y="220" type="line"/>
      <point x="126" y="197" type="line"/>
      <point x="229" y="197" type="line" smooth="yes"/>
      <point x="337" y="197"/>
      <point x="398" y="138"/>
      <point x="398" y="34" type="curve" smooth="yes"/>
      <point x="398" y="-84"/>
      <point x="339" y="-149"/>
      <point x="223" y="-149" type="curve" smooth="yes"/>
      <point x="147" y="-149"/>
      <point x="91" y="-128"/>
      <point x="43" y="-85" type="curve"/>
      <point x="23" y="-119" type="line"/>
      <point x="67" y="-163"/>
      <point x="139" y="-188"/>
    </contour>
  </outline>
</glyph>
<glyph name="quoteleft" format="2">
  <advance width="211"/>
  <unicode hex="2018"/>
  <outline>
    <contour>
      <point x="71" y="567" type="line"/>
      <point x="140" y="567" type="line"/>
      <point x="140" y="637" type="line"/>
      <point x="90" y="637" type="line"/>
      <point x="108" y="631" type="line"/>
      <point x="108" y="657"/>
      <point x="113" y="682"/>
      <point x="142" y="715" type="curve"/>
      <point x="115" y="735" type="line"/>
      <point x="82" y="701"/>
      <point x="71" y="664"/>
      <point x="71" y="621" type="curve" smooth="yes"/>
    </contour>
  </outline>
</glyph>
<glyph name="quoteright" format="2">
  <advance width="211"/>
  <unicode hex="2019"/>
  <outline>
    <contour>
      <point x="97" y="562" type="line"/>
      <point x="131" y="595"/>
      <point x="141" y="633"/>
      <point x="141" y="675" type="curve" smooth="yes"/>
      <point x="141" y="730" type="line"/>
      <point x="72" y="730" type="line"/>
      <point x="72" y="660" type="line"/>
      <point x="123" y="660" type="line"/>
      <point x="104" y="666" type="line"/>
      <point x="104" y="640"/>
      <point x="100" y="614"/>
      <point x="71" y="582" type="curve"/>
    </contour>
  </outline>
</glyph>
<glyph name="guilsinglleft" format="2">
  <advance width="236"/>
  <unicode hex="2039"/>
  <outline>
    <contour>
      <point x="160" y="105" type="line"/>
      <point x="194" y="116" type="line"/>
      <point x="105" y="290" type="line"/>
      <point x="194" y="463" type="line"/>
      <point x="160" y="475" type="line"/>
      <point x="60" y="301" type="line"/>
      <point x="60" y="279" type="line"/>
    </contour>
  </outline>
</glyph>
<glyph name="guilsinglright" format="2">
  <advance width="236"/>
  <unicode hex="203A"/>
  <outline>
    <contour>
      <point x="77" y="105" type="line"/>
      <point x="176" y="279" type="line"/>
      <point x="176" y="301" type="line"/>
      <point x="77" y="475" type="line"/>
      <point x="43" y="463" type="line"/>
      <point x="131" y="290" type="line"/>
      <point x="43" y="116" type="line"/>
    </contour>
  </outline>
</glyph>
<glyph name="fi" format="2">
  <advance width="512"/>
  <unicode hex="FB01"/>
  <anchor x="111.775" y="0" name="bottom"/>
  <anchor x="266" y="0" name="caret_1"/>
  <anchor x="414.648" y="0" name="ogonek"/>
  <anchor x="191.82" y="705" name="top"/>
  <outline>
    <contour>
      <point x="105" y="0" type="line"/>
      <point x="147" y="0" type="line"/>
      <point x="147" y="498" type="line"/>
      <point x="385" y="498" type="line"/>
      <point x="385" y="0" type="line"/>
      <point x="427" y="0" type="line"/>
      <point x="427" y="534" type="line"/>
      <point x="142" y="534" type="line"/>
      <point x="147" y="514" type="line"/>
      <point x="147" y="545" type="line" smooth="yes"/>
      <point x="147" y="620"/>
      <point x="181" y="665"/>
      <point x="269" y="668" type="curve" smooth="yes"/>
      <point x="314" y="670" type="line"/>
      <point x="312" y="707" type="line"/>
      <point x="276" y="706" type="line" smooth="yes"/>
      <point x="158" y="701"/>
      <point x="105" y="642"/>
      <point x="105" y="545" type="curve" smooth="yes"/>
      <point x="105" y="516" type="line"/>
      <point x="115" y="534" type="line"/>
      <point x="8" y="534" type="line"/>
      <point x="8" y="498" type="line"/>
      <point x="105" y="498" type="line"/>
    </contour>
    <contour>
      <point x="374" y="645" type="line"/>
      <point x="438" y="645" type="line"/>
      <point x="438" y="708" type="line"/>
      <point x="374" y="708" type="line"/>
    </contour>
  </outline>
</glyph>
<glyph name="_part.Qtail" format="2">
  <advance width="751"/>
  <anchor x="375" y="-8" name="_Qtail"/>
  <outline>
    <contour>
      <point x="573" y="-190" type="line"/>
      <point x="606" y="-168" type="line"/>
      <point x="544" y="-68" type="line" smooth="yes"/>
      <point x="507" y="-5"/>
      <point x="479" y="12"/>
      <point x="415" y="12" type="curve"/>
      <point x="375" y="-8" type="line"/>
      <point x="432" y="-8"/>
      <point x="475" y="-31"/>
      <point x="501" y="-74" type="curve" smooth="yes"/>
    </contour>
  </outline>
</glyph>
<glyph name="acutecomb_dotaccentcomb" format="2">
  <anchor x="0" y="484" name="_top"/>
  <outline>
    <contour>
      <point x="-18" y="599" type="line"/>
      <point x="18" y="599" type="line"/>
      <point x="140" y="779" type="line"/>
      <point x="86" y="779" type="line"/>
    </contour>
    <contour>
      <point x="-61" y="784" type="line"/>
      <point x="0" y="784" type="line"/>
      <point x="0" y="844" type="line"/>
      <point x="-61" y="844" type="line"/>
    </contour>
  </outline>
</glyph>
<glyph name="brevecomb_acutecomb" format="2">
  <anchor x="0" y="484" name="_top"/>
  <outline>
    <contour>
      <point x="0" y="597" type="curve" smooth="yes"/>
      <point x="83" y="597"/>
      <point x="138" y="647"/>
      <point x="144" y="730" type="curve"/>
      <point x="111" y="733" type="line"/>
      <point x="106" y="668"/>
      <point x="66" y="633"/>
      <point x="0" y="633" type="curve" smooth="yes"/>
      <point x="-66" y="633"/>
      <point x="-106" y="668"/>
      <point x="-111" y="733" type="curve"/>
      <point x="-144" y="730" type="line"/>
      <point x="-138" y="647"/>
      <point x="-83" y="597"/>
    </contour>
    <contour>
      <point x="-24" y="691" type="line"/>
      <point x="12" y="691" type="line"/>
      <point x="128" y="825" type="line"/>
      <point x="74" y="825" type="line"/>
    </contour>
  </outline>
</glyph>
<glyph name="brevecomb_tildecomb" format="2">
  <anchor x="0" y="484" name="_top"/>
  <outline>
    <contour>
      <point x="0" y="598" type="curve" smooth="yes"/>
      <point x="75" y="598"/>
      <point x="130" y="634"/>
      <point x="144" y="694" type="curve"/>
      <point x="111" y="699" type="line"/>
      <point x="97" y="657"/>
      <point x="58" y="634"/>
      <point x="0" y="634" type="curve" smooth="yes"/>
      <point x="-58" y="634"/>
      <point x="-97" y="657"/>
      <point x="-111" y="699" type="curve"/>
      <point x="-144" y="694" type="line"/>
      <point x="-130" y="633"/>
      <point x="-75" y="598"/>
    </contour>
    <contour>
      <point x="-113" y="739" type="line"/>
      <point x="-105" y="777"/>
      <point x="-92" y="793"/>
      <point x="-62" y="793" type="curve" smooth="yes"/>
      <point x="-46" y="793"/>
      <point x="-31" y="784"/>
      <point x="-13" y="772" type="curve" smooth="yes"/>
      <point x="19" y="749"/>
      <point x="38" y="741"/>
      <point x="63" y="741" type="curve" smooth="yes"/>
      <point x="109" y="741"/>
      <point x="140" y="770"/>
      <point x="146" y="828" type="curve"/>
      <point x="113" y="830" type="line"/>
      <point x="105" y="792"/>
      <point x="92" y="776"/>
      <point x="62" y="776" type="curve" smooth="yes"/>
      <point x="47" y="776"/>
      <point x="34" y="782"/>
      <point x="8" y="800" type="curve" smooth="yes"/>
      <point x="-18" y="818"/>
      <point x="-36" y="828"/>
      <point x="-62" y="828" type="curve" smooth="yes"/>
      <point x="-108" y="828"/>
      <point x="-139" y="799"/>
      <point x="-146" y="741" type="curve"/>
    </contour>
  </outline>
</glyph>
<glyph name="caroncomb_dotaccentcomb" format="2">
  <anchor x="0" y="484" name="_top"/>
  <outline>
    <contour>
      <point x="-24" y="599" type="line"/>
      <point x="24" y="599" type="line"/>
      <point x="133" y="743" type="line"/>
      <point x="98" y="743" type="line"/>
      <point x="0" y="636" type="line"/>
      <point x="-98" y="743" type="line"/>
      <point x="-133" y="743" type="line"/>
    </contour>
    <contour>
      <point x="-30" y="788" type="line"/>
      <point x="31" y="788" type="line"/>
      <point x="31" y="848" type="line"/>
      <point x="-30" y="848" type="line"/>
    </contour>
  </outline>
</glyph>
<glyph name="commaaccentcomb.alt" format="2">
  <anchor x="0" y="0" name="_bottom"/>
  <anchor x="0" y="-170" name="bottom"/>
  <outline>
    <contour>
      <point x="-12" y="-259" type="line"/>
      <point x="19" y="-227"/>
      <point x="35" y="-185"/>
      <point x="35" y="-140" type="curve" smooth="yes"/>
      <point x="35" y="-86" type="line"/>
      <point x="-35" y="-86" type="line"/>
      <point x="-35" y="-151" type="line"/>
      <point x="15" y="-151" type="line"/>
      <point x="0" y="-144" type="line"/>
      <point x="0" y="-177"/>
      <point x="-7" y="-204"/>
      <point x="-38" y="-239" type="curve"/>
    </contour>
  </outline>
</glyph>
<glyph name="dotaccentcomb.i" format="2">
  <anchor x="0" y="484" name="_top"/>
  <anchor x="0" y="685" name="top"/>
  <outline>
    <contour>
      <point x="-32" y="645" type="line"/>
      <point x="32" y="645" type="line"/>
      <point x="32" y="708" type="line"/>
      <point x="-32" y="708" type="line"/>
    </contour>
  </outline>
</glyph>
<glyph name="four.tosf" format="2">
  <advance width="600"/>
  <outline>
    <contour>
      <point x="397" y="-180" type="line"/>
      <point x="439" y="-180" type="line"/>
      <point x="439" y="0" type="line"/>
      <point x="543" y="0" type="line"/>
      <point x="543" y="37" type="line"/>
      <point x="439" y="37" type="line"/>
      <point x="439" y="534" type="line"/>
      <point x="404" y="534" type="line"/>
      <point x="63" y="33" type="line"/>
      <point x="63" y="0" type="line"/>
      <point x="397" y="0" type="line"/>
    </contour>
    <contour>
      <point x="397" y="37" type="line"/>
      <point x="106" y="37" type="line"/>
      <point x="106" y="27" type="line"/>
      <point x="409" y="472" type="line"/>
      <point x="397" y="472" type="line"/>
    </contour>
  </outline>
</glyph>
<glyph name="macroncomb_dieresiscomb.case" format="2">
  <anchor x="0" y="705" name="_top"/>
  <outline>
    <contour>
      <point x="-140" y="806" type="line"/>
      <point x="140" y="806" type="line"/>
      <point x="140" y="844" type="line"/>
      <point x="-140" y="844" type="line"/>
    </contour>
    <contour>
      <point x="-111" y="905" type="line"/>
      <point x="-50" y="905" type="line"/>
      <point x="-50" y="965" type="line"/>
      <point x="-111" y="965" type="line"/>
    </contour>
    <contour>
      <point x="50" y="905" type="line"/>
      <point x="111" y="905" type="line"/>
      <point x="111" y="965" type="line"/>
      <point x="50" y="965" type="line"/>
    </contour>
  </outline>
</glyph>
<glyph name="nine.tosf" format="2">
  <advance width="600"/>
  <outline>
    <contour>
      <point x="266" y="-188" type="curve" smooth="yes"/>
      <point x="436" y="-188"/>
      <point x="532" y="-55"/>
      <point x="532" y="192" type="curve" smooth="yes"/>
      <point x="532" y="413"/>
      <point x="445" y="542"/>
      <point x="284" y="542" type="curve" smooth="yes"/>
      <point x="157" y="542"/>
      <point x="68" y="440"/>
      <point x="68" y="308" type="curve" smooth="yes"/>
      <point x="68" y="171"/>
      <point x="155" y="76"/>
      <point x="284" y="76" type="curve" smooth="yes"/>
      <point x="400" y="76"/>
      <point x="488" y="156"/>
      <point x="497" y="286" type="curve"/>
      <point x="491" y="286" type="line"/>
      <point x="491" y="178" type="line" smooth="yes"/>
      <point x="491" y="-35"/>
      <point x="411" y="-149"/>
      <point x="266" y="-149" type="curve" smooth="yes"/>
      <point x="200" y="-149"/>
      <point x="138" y="-123"/>
      <point x="94" y="-67" type="curve"/>
      <point x="72" y="-98" type="line"/>
      <point x="112" y="-154"/>
      <point x="192" y="-188"/>
    </contour>
    <contour>
      <point x="288" y="115" type="curve" smooth="yes"/>
      <point x="183" y="115"/>
      <point x="111" y="193"/>
      <point x="111" y="309" type="curve" smooth="yes"/>
      <point x="111" y="420"/>
      <point x="183" y="503"/>
      <point x="288" y="503" type="curve" smooth="yes"/>
      <point x="393" y="503"/>
      <point x="465" y="420"/>
      <point x="465" y="309" type="curve" smooth="yes"/>
      <point x="465" y="193"/>
      <point x="393" y="115"/>
    </contour>
  </outline>
</glyph>
<glyph name="one.tosf.ss01" format="2">
  <advance width="600"/>
  <outline>
    <contour>
      <point x="308" y="0" type="line"/>
      <point x="350" y="0" type="line"/>
      <point x="350" y="534" type="line"/>
      <point x="318" y="534" type="line"/>
      <point x="139" y="402" type="line"/>
      <point x="162" y="371" type="line"/>
      <point x="335" y="499" type="line"/>
      <point x="308" y="499" type="line"/>
    </contour>
  </outline>
</glyph>
<glyph name="ringcomb_acutecomb" format="2">
  <anchor x="0" y="484" name="_top"/>
  <outline>
    <contour>
      <point x="0" y="597" type="curve" smooth="yes"/>
      <point x="63" y="597"/>
      <point x="112" y="646"/>
      <point x="112" y="707" type="curve" smooth="yes"/>
      <point x="112" y="731"/>
      <point x="105" y="753"/>
      <point x="92" y="771" type="curve"/>
      <point x="205" y="866" type="line"/>
      <point x="144" y="866" type="line"/>
      <point x="68" y="795" type="line"/>
      <point x="49" y="809"/>
      <point x="26" y="817"/>
      <point x="0" y="817" type="curve" smooth="yes"/>
      <point x="-63" y="817"/>
      <point x="-112" y="768"/>
      <point x="-112" y="707" type="curve" smooth="yes"/>
      <point x="-112" y="646"/>
      <point x="-63" y="597"/>
    </contour>
    <contour>
      <point x="0" y="629" type="curve" smooth="yes"/>
      <point x="-46" y="629"/>
      <point x="-78" y="663"/>
      <point x="-78" y="707" type="curve" smooth="yes"/>
      <point x="-78" y="751"/>
      <point x="-46" y="785"/>
      <point x="0" y="785" type="curve" smooth="yes"/>
      <point x="46" y="785"/>
      <point x="78" y="751"/>
      <point x="78" y="707" type="curve" smooth="yes"/>
      <point x="78" y="663"/>
      <point x="46" y="629"/>
    </contour>
  </outline>
</glyph>
<glyph name="seven.tosf" format="2">
  <advance width="600"/>
  <outline>
    <contour>
      <point x="135" y="-180" type="line"/>
      <point x="181" y="-180" type="line"/>
      <point x="512" y="506" type="line"/>
      <point x="512" y="534" type="line"/>
      <point x="87" y="534" type="line"/>
      <point x="87" y="497" type="line"/>
      <point x="477" y="497" type="line"/>
      <point x="477" y="526" type="line"/>
    </contour>
  </outline>
</glyph>
<glyph name="strokeshortcomb.t" format="2">
  <anchor x="0" y="270" name="_center"/>
  <outline>
    <contour>
      <point x="-123" y="251" type="line"/>
      <point x="122" y="251" type="line"/>
      <point x="122" y="287" type="line"/>
      <point x="-123" y="287" type="line"/>
    </contour>
  </outline>
</glyph>
<glyph name="tildecomb.o" format="2">
  <anchor x="0" y="484" name="_top"/>
  <anchor x="0" y="685" name="top"/>
  <outline>
    <contour>
      <point x="-136" y="641" type="line"/>
      <point x="-129" y="690"/>
      <point x="-108" y="719"/>
      <point x="-72" y="719" type="curve" smooth="yes"/>
      <point x="-52" y="719"/>
      <point x="-35" y="707"/>
      <point x="-10" y="685" type="curve" smooth="yes"/>
      <point x="17" y="660"/>
      <point x="42" y="643"/>
      <point x="73" y="643" type="curve" smooth="yes"/>
      <point x="126" y="643"/>
      <point x="161" y="683"/>
      <point x="168" y="753" type="curve"/>
      <point x="136" y="755" type="line"/>
      <point x="129" y="706"/>
      <point x="108" y="677"/>
      <point x="72" y="677" type="curve" smooth="yes"/>
      <point x="52" y="677"/>
      <point x="37" y="688"/>
      <point x="10" y="711" type="curve" smooth="yes"/>
      <point x="-20" y="738"/>
      <point x="-43" y="753"/>
      <point x="-72" y="753" type="curve" smooth="yes"/>
      <point x="-126" y="753"/>
      <point x="-161" y="713"/>
      <point x="-168" y="643" type="curve"/>
    </contour>
  </outline>
</glyph>
<glyph name="two.tosf" format="2">
  <advance width="600"/>
  <outline>
    <contour>
      <point x="112" y="0" type="line"/>
      <point x="502" y="0" type="line"/>
      <point x="502" y="37" type="line"/>
      <point x="153" y="37" type="line"/>
      <point x="153" y="17" type="line"/>
      <point x="388" y="163"/>
      <point x="484" y="266"/>
      <point x="484" y="381" type="curve" smooth="yes"/>
      <point x="484" y="482"/>
      <point x="416" y="542"/>
      <point x="300" y="542" type="curve" smooth="yes"/>
      <point x="222" y="542"/>
      <point x="147" y="516"/>
      <point x="90" y="468" type="curve"/>
      <point x="111" y="435" type="line"/>
      <point x="166" y="480"/>
      <point x="230" y="503"/>
      <point x="301" y="503" type="curve" smooth="yes"/>
      <point x="391" y="503"/>
      <point x="441" y="460"/>
      <point x="441" y="382" type="curve" smooth="yes"/>
      <point x="441" y="277"/>
      <point x="352" y="182"/>
      <point x="112" y="31" type="curve"/>
    </contour>
  </outline>
</glyph>
